<svg width="1300" height="160"><line x1="0" y1="0" x2="0" y2="10" stroke="grey"></line><line x1="4" y1="0" x2="4" y2="10" stroke="grey"></line><line x1="8" y1="0" x2="8" y2="10" stroke="grey"></line><line x1="12" y1="0" x2="12" y2="10" stroke="grey"></line><line x1="16" y1="0" x2="16" y2="10" stroke="grey"></line><line x1="20" y1="0" x2="20" y2="10" stroke="grey"></line><line x1="24" y1="0" x2="24" y2="10" stroke="grey"></line><line x1="28" y1="0" x2="28" y2="10" stroke="grey"></line><line x1="32" y1="0" x2="32" y2="10" stroke="grey"></line><line x1="36" y1="0" x2="36" y2="10" stroke="grey"></line><line x1="40" y1="0" x2="40" y2="10" stroke="grey"></line><line x1="44" y1="0" x2="44" y2="10" stroke="grey"></line><line x1="48" y1="0" x2="48" y2="10" stroke="grey"></line><line x1="52" y1="0" x2="52" y2="10" stroke="grey"></line><line x1="56" y1="0" x2="56" y2="10" stroke="grey"></line><line x1="60" y1="0" x2="60" y2="10" stroke="grey"></line><line x1="64" y1="0" x2="64" y2="10" stroke="grey"></line><line x1="68" y1="0" x2="68" y2="10" stroke="grey"></line><line x1="72" y1="0" x2="72" y2="10" stroke="grey"></line><line x1="76" y1="0" x2="76" y2="10" stroke="grey"></line><line x1="80" y1="0" x2="80" y2="10" stroke="grey"></line><line x1="84" y1="0" x2="84" y2="10" stroke="grey"></line><line x1="88" y1="0" x2="88" y2="10" stroke="grey"></line><line x1="92" y1="0" x2="92" y2="10" stroke="grey"></line><line x1="96" y1="0" x2="96" y2="10" stroke="grey"></line><line x1="100" y1="0" x2="100" y2="10" stroke="grey"></line><line x1="104" y1="0" x2="104" y2="10" stroke="grey"></line><line x1="108" y1="0" x2="108" y2="10" stroke="grey"></line><line x1="112" y1="0" x2="112" y2="10" stroke="grey"></line><line x1="116" y1="0" x2="116" y2="10" stroke="grey"></line><line x1="120" y1="0" x2="120" y2="10" stroke="grey"></line><line x1="124" y1="0" x2="124" y2="10" stroke="grey"></line><line x1="128" y1="0" x2="128" y2="10" stroke="grey"></line><line x1="132" y1="0" x2="132" y2="10" stroke="grey"></line><line x1="136" y1="0" x2="136" y2="10" stroke="grey"></line><line x1="140" y1="0" x2="140" y2="10" stroke="grey"></line><line x1="144" y1="0" x2="144" y2="10" stroke="grey"></line><line x1="148" y1="0" x2="148" y2="10" stroke="grey"></line><line x1="152" y1="0" x2="152" y2="10" stroke="grey"></line><line x1="156" y1="0" x2="156" y2="10" stroke="grey"></line><line x1="160" y1="0" x2="160" y2="10" stroke="grey"></line><line x1="164" y1="0" x2="164" y2="10" stroke="grey"></line><line x1="168" y1="0" x2="168" y2="10" stroke="grey"></line><line x1="172" y1="0" x2="172" y2="10" stroke="grey"></line><line x1="176" y1="0" x2="176" y2="10" stroke="grey"></line><line x1="180" y1="0" x2="180" y2="10" stroke="grey"></line><line x1="184" y1="0" x2="184" y2="10" stroke="grey"></line><line x1="188" y1="0" x2="188" y2="10" stroke="grey"></line><line x1="192" y1="0" x2="192" y2="10" stroke="grey"></line><line x1="196" y1="0" x2="196" y2="10" stroke="grey"></line><line x1="200" y1="0" x2="200" y2="10" stroke="grey"></line><line x1="204" y1="0" x2="204" y2="10" stroke="grey"></line><line x1="208" y1="0" x2="208" y2="10" stroke="grey"></line><line x1="212" y1="0" x2="212" y2="10" stroke="grey"></line><line x1="216" y1="0" x2="216" y2="10" stroke="grey"></line><line x1="220" y1="0" x2="220" y2="10" stroke="grey"></line><line x1="224" y1="0" x2="224" y2="10" stroke="grey"></line><line x1="228" y1="0" x2="228" y2="10" stroke="grey"></line><line x1="232" y1="0" x2="232" y2="10" stroke="grey"></line><line x1="236" y1="0" x2="236" y2="10" stroke="grey"></line><line x1="240" y1="0" x2="240" y2="10" stroke="grey"></line><line x1="244" y1="0" x2="244" y2="10" stroke="grey"></line><line x1="248" y1="0" x2="248" y2="10" stroke="grey"></line><line x1="252" y1="0" x2="252" y2="10" stroke="grey"></line><line x1="256" y1="0" x2="256" y2="10" stroke="grey"></line><line x1="260" y1="0" x2="260" y2="10" stroke="grey"></line><line x1="264" y1="0" x2="264" y2="10" stroke="grey"></line><line x1="268" y1="0" x2="268" y2="10" stroke="grey"></line><line x1="272" y1="0" x2="272" y2="10" stroke="grey"></line><line x1="276" y1="0" x2="276" y2="10" stroke="grey"></line><line x1="280" y1="0" x2="280" y2="10" stroke="grey"></line><line x1="284" y1="0" x2="284" y2="10" stroke="grey"></line><line x1="288" y1="0" x2="288" y2="10" stroke="grey"></line><line x1="292" y1="0" x2="292" y2="10" stroke="grey"></line><line x1="296" y1="0" x2="296" y2="10" stroke="grey"></line><line x1="300" y1="0" x2="300" y2="10" stroke="grey"></line><line x1="304" y1="0" x2="304" y2="10" stroke="grey"></line><line x1="308" y1="0" x2="308" y2="10" stroke="grey"></line><line x1="312" y1="0" x2="312" y2="10" stroke="grey"></line><line x1="316" y1="0" x2="316" y2="10" stroke="grey"></line><line x1="320" y1="0" x2="320" y2="10" stroke="grey"></line><line x1="324" y1="0" x2="324" y2="10" stroke="grey"></line><line x1="328" y1="0" x2="328" y2="10" stroke="grey"></line><line x1="332" y1="0" x2="332" y2="10" stroke="grey"></line><line x1="336" y1="0" x2="336" y2="10" stroke="grey"></line><line x1="340" y1="0" x2="340" y2="10" stroke="grey"></line><line x1="344" y1="0" x2="344" y2="10" stroke="grey"></line><line x1="348" y1="0" x2="348" y2="10" stroke="grey"></line><line x1="352" y1="0" x2="352" y2="10" stroke="grey"></line><line x1="356" y1="0" x2="356" y2="10" stroke="grey"></line><line x1="360" y1="0" x2="360" y2="10" stroke="grey"></line><line x1="364" y1="0" x2="364" y2="10" stroke="grey"></line><line x1="368" y1="0" x2="368" y2="10" stroke="grey"></line><line x1="372" y1="0" x2="372" y2="10" stroke="grey"></line><line x1="376" y1="0" x2="376" y2="10" stroke="grey"></line><line x1="380" y1="0" x2="380" y2="10" stroke="grey"></line><line x1="384" y1="0" x2="384" y2="10" stroke="grey"></line><line x1="388" y1="0" x2="388" y2="10" stroke="grey"></line><line x1="392" y1="0" x2="392" y2="10" stroke="grey"></line><line x1="396" y1="0" x2="396" y2="10" stroke="grey"></line><line x1="400" y1="0" x2="400" y2="10" stroke="grey"></line><line x1="404" y1="0" x2="404" y2="10" stroke="grey"></line><line x1="408" y1="0" x2="408" y2="10" stroke="grey"></line><line x1="412" y1="0" x2="412" y2="10" stroke="grey"></line><line x1="416" y1="0" x2="416" y2="10" stroke="grey"></line><line x1="420" y1="0" x2="420" y2="10" stroke="grey"></line><line x1="424" y1="0" x2="424" y2="10" stroke="grey"></line><line x1="428" y1="0" x2="428" y2="10" stroke="grey"></line><line x1="432" y1="0" x2="432" y2="10" stroke="grey"></line><line x1="436" y1="0" x2="436" y2="10" stroke="grey"></line><line x1="440" y1="0" x2="440" y2="10" stroke="grey"></line><line x1="444" y1="0" x2="444" y2="10" stroke="grey"></line><line x1="448" y1="0" x2="448" y2="10" stroke="grey"></line><line x1="452" y1="0" x2="452" y2="10" stroke="grey"></line><line x1="456" y1="0" x2="456" y2="10" stroke="grey"></line><line x1="460" y1="0" x2="460" y2="10" stroke="grey"></line><line x1="464" y1="0" x2="464" y2="10" stroke="grey"></line><line x1="468" y1="0" x2="468" y2="10" stroke="grey"></line><line x1="472" y1="0" x2="472" y2="10" stroke="grey"></line><line x1="476" y1="0" x2="476" y2="10" stroke="grey"></line><line x1="480" y1="0" x2="480" y2="10" stroke="grey"></line><line x1="484" y1="0" x2="484" y2="10" stroke="grey"></line><line x1="488" y1="0" x2="488" y2="10" stroke="grey"></line><line x1="492" y1="0" x2="492" y2="10" stroke="grey"></line><line x1="496" y1="0" x2="496" y2="10" stroke="grey"></line><line x1="500" y1="0" x2="500" y2="10" stroke="grey"></line><line x1="504" y1="0" x2="504" y2="10" stroke="grey"></line><line x1="508" y1="0" x2="508" y2="10" stroke="grey"></line><line x1="512" y1="0" x2="512" y2="10" stroke="grey"></line><line x1="516" y1="0" x2="516" y2="10" stroke="grey"></line><line x1="520" y1="0" x2="520" y2="10" stroke="grey"></line><line x1="524" y1="0" x2="524" y2="10" stroke="grey"></line><line x1="528" y1="0" x2="528" y2="10" stroke="grey"></line><line x1="532" y1="0" x2="532" y2="10" stroke="grey"></line><line x1="536" y1="0" x2="536" y2="10" stroke="grey"></line><line x1="540" y1="0" x2="540" y2="10" stroke="grey"></line><line x1="544" y1="0" x2="544" y2="10" stroke="grey"></line><line x1="548" y1="0" x2="548" y2="10" stroke="grey"></line><line x1="552" y1="0" x2="552" y2="10" stroke="grey"></line><line x1="556" y1="0" x2="556" y2="10" stroke="grey"></line><line x1="560" y1="0" x2="560" y2="10" stroke="grey"></line><line x1="564" y1="0" x2="564" y2="10" stroke="grey"></line><line x1="568" y1="0" x2="568" y2="10" stroke="grey"></line><line x1="572" y1="0" x2="572" y2="10" stroke="grey"></line><line x1="576" y1="0" x2="576" y2="10" stroke="grey"></line><line x1="580" y1="0" x2="580" y2="10" stroke="grey"></line><line x1="584" y1="0" x2="584" y2="10" stroke="grey"></line><line x1="588" y1="0" x2="588" y2="10" stroke="grey"></line><line x1="592" y1="0" x2="592" y2="10" stroke="grey"></line><line x1="596" y1="0" x2="596" y2="10" stroke="grey"></line><line x1="600" y1="0" x2="600" y2="10" stroke="grey"></line><line x1="604" y1="0" x2="604" y2="10" stroke="grey"></line><line x1="608" y1="0" x2="608" y2="10" stroke="grey"></line><line x1="612" y1="0" x2="612" y2="10" stroke="grey"></line><line x1="616" y1="0" x2="616" y2="10" stroke="grey"></line><line x1="620" y1="0" x2="620" y2="10" stroke="grey"></line><line x1="624" y1="0" x2="624" y2="10" stroke="grey"></line><line x1="628" y1="0" x2="628" y2="10" stroke="grey"></line><line x1="632" y1="0" x2="632" y2="10" stroke="grey"></line><line x1="636" y1="0" x2="636" y2="10" stroke="grey"></line><line x1="640" y1="0" x2="640" y2="10" stroke="grey"></line><line x1="644" y1="0" x2="644" y2="10" stroke="grey"></line><line x1="648" y1="0" x2="648" y2="10" stroke="grey"></line><line x1="652" y1="0" x2="652" y2="10" stroke="grey"></line><line x1="656" y1="0" x2="656" y2="10" stroke="grey"></line><line x1="660" y1="0" x2="660" y2="10" stroke="grey"></line><line x1="664" y1="0" x2="664" y2="10" stroke="grey"></line><line x1="668" y1="0" x2="668" y2="10" stroke="grey"></line><line x1="672" y1="0" x2="672" y2="10" stroke="grey"></line><line x1="676" y1="0" x2="676" y2="10" stroke="grey"></line><line x1="680" y1="0" x2="680" y2="10" stroke="grey"></line><line x1="684" y1="0" x2="684" y2="10" stroke="grey"></line><line x1="688" y1="0" x2="688" y2="10" stroke="grey"></line><line x1="692" y1="0" x2="692" y2="10" stroke="grey"></line><line x1="696" y1="0" x2="696" y2="10" stroke="grey"></line><line x1="700" y1="0" x2="700" y2="10" stroke="grey"></line><line x1="704" y1="0" x2="704" y2="10" stroke="grey"></line><line x1="708" y1="0" x2="708" y2="10" stroke="grey"></line><line x1="712" y1="0" x2="712" y2="10" stroke="grey"></line><line x1="716" y1="0" x2="716" y2="10" stroke="grey"></line><line x1="720" y1="0" x2="720" y2="10" stroke="grey"></line><line x1="724" y1="0" x2="724" y2="10" stroke="grey"></line><line x1="728" y1="0" x2="728" y2="10" stroke="grey"></line><line x1="732" y1="0" x2="732" y2="10" stroke="grey"></line><line x1="736" y1="0" x2="736" y2="10" stroke="grey"></line><line x1="740" y1="0" x2="740" y2="10" stroke="grey"></line><line x1="744" y1="0" x2="744" y2="10" stroke="grey"></line><line x1="748" y1="0" x2="748" y2="10" stroke="grey"></line><line x1="752" y1="0" x2="752" y2="10" stroke="grey"></line><line x1="756" y1="0" x2="756" y2="10" stroke="grey"></line><line x1="760" y1="0" x2="760" y2="10" stroke="grey"></line><line x1="764" y1="0" x2="764" y2="10" stroke="grey"></line><line x1="768" y1="0" x2="768" y2="10" stroke="grey"></line><line x1="772" y1="0" x2="772" y2="10" stroke="grey"></line><line x1="776" y1="0" x2="776" y2="10" stroke="grey"></line><line x1="780" y1="0" x2="780" y2="10" stroke="grey"></line><line x1="784" y1="0" x2="784" y2="10" stroke="grey"></line><line x1="788" y1="0" x2="788" y2="10" stroke="grey"></line><line x1="792" y1="0" x2="792" y2="10" stroke="grey"></line><line x1="796" y1="0" x2="796" y2="10" stroke="grey"></line><line x1="800" y1="0" x2="800" y2="10" stroke="grey"></line><line x1="804" y1="0" x2="804" y2="10" stroke="grey"></line><line x1="808" y1="0" x2="808" y2="10" stroke="grey"></line><line x1="812" y1="0" x2="812" y2="10" stroke="grey"></line><line x1="816" y1="0" x2="816" y2="10" stroke="grey"></line><line x1="820" y1="0" x2="820" y2="10" stroke="grey"></line><line x1="824" y1="0" x2="824" y2="10" stroke="grey"></line><line x1="828" y1="0" x2="828" y2="10" stroke="grey"></line><line x1="832" y1="0" x2="832" y2="10" stroke="grey"></line><line x1="836" y1="0" x2="836" y2="10" stroke="grey"></line><line x1="840" y1="0" x2="840" y2="10" stroke="grey"></line><line x1="844" y1="0" x2="844" y2="10" stroke="grey"></line><line x1="848" y1="0" x2="848" y2="10" stroke="grey"></line><line x1="852" y1="0" x2="852" y2="10" stroke="grey"></line><line x1="856" y1="0" x2="856" y2="10" stroke="grey"></line><line x1="860" y1="0" x2="860" y2="10" stroke="grey"></line><line x1="864" y1="0" x2="864" y2="10" stroke="grey"></line><line x1="868" y1="0" x2="868" y2="10" stroke="grey"></line><line x1="872" y1="0" x2="872" y2="10" stroke="grey"></line><line x1="876" y1="0" x2="876" y2="10" stroke="grey"></line><line x1="880" y1="0" x2="880" y2="10" stroke="grey"></line><line x1="884" y1="0" x2="884" y2="10" stroke="grey"></line><line x1="888" y1="0" x2="888" y2="10" stroke="grey"></line><line x1="892" y1="0" x2="892" y2="10" stroke="grey"></line><line x1="896" y1="0" x2="896" y2="10" stroke="grey"></line><line x1="900" y1="0" x2="900" y2="10" stroke="grey"></line><line x1="904" y1="0" x2="904" y2="10" stroke="grey"></line><line x1="908" y1="0" x2="908" y2="10" stroke="grey"></line><line x1="912" y1="0" x2="912" y2="10" stroke="grey"></line><line x1="916" y1="0" x2="916" y2="10" stroke="grey"></line><line x1="920" y1="0" x2="920" y2="10" stroke="grey"></line><line x1="924" y1="0" x2="924" y2="10" stroke="grey"></line><line x1="928" y1="0" x2="928" y2="10" stroke="grey"></line><line x1="932" y1="0" x2="932" y2="10" stroke="grey"></line><line x1="936" y1="0" x2="936" y2="10" stroke="grey"></line><line x1="940" y1="0" x2="940" y2="10" stroke="grey"></line><line x1="944" y1="0" x2="944" y2="10" stroke="grey"></line><line x1="948" y1="0" x2="948" y2="10" stroke="grey"></line><line x1="952" y1="0" x2="952" y2="10" stroke="grey"></line><line x1="956" y1="0" x2="956" y2="10" stroke="grey"></line><line x1="960" y1="0" x2="960" y2="10" stroke="grey"></line><line x1="964" y1="0" x2="964" y2="10" stroke="grey"></line><line x1="968" y1="0" x2="968" y2="10" stroke="grey"></line><line x1="972" y1="0" x2="972" y2="10" stroke="grey"></line><line x1="976" y1="0" x2="976" y2="10" stroke="grey"></line><line x1="980" y1="0" x2="980" y2="10" stroke="grey"></line><line x1="984" y1="0" x2="984" y2="10" stroke="grey"></line><line x1="988" y1="0" x2="988" y2="10" stroke="grey"></line><line x1="992" y1="0" x2="992" y2="10" stroke="grey"></line><line x1="996" y1="0" x2="996" y2="10" stroke="grey"></line><line x1="1000" y1="0" x2="1000" y2="10" stroke="grey"></line><line x1="1004" y1="0" x2="1004" y2="10" stroke="grey"></line><line x1="1008" y1="0" x2="1008" y2="10" stroke="grey"></line><line x1="1012" y1="0" x2="1012" y2="10" stroke="grey"></line><line x1="1016" y1="0" x2="1016" y2="10" stroke="grey"></line><line x1="1020" y1="0" x2="1020" y2="10" stroke="grey"></line><line x1="1024" y1="0" x2="1024" y2="10" stroke="grey"></line><line x1="1028" y1="0" x2="1028" y2="10" stroke="grey"></line><line x1="1032" y1="0" x2="1032" y2="10" stroke="grey"></line><line x1="1036" y1="0" x2="1036" y2="10" stroke="grey"></line><line x1="1040" y1="0" x2="1040" y2="10" stroke="grey"></line><line x1="1044" y1="0" x2="1044" y2="10" stroke="grey"></line><line x1="1048" y1="0" x2="1048" y2="10" stroke="grey"></line><line x1="1052" y1="0" x2="1052" y2="10" stroke="grey"></line><line x1="1056" y1="0" x2="1056" y2="10" stroke="grey"></line><line x1="1060" y1="0" x2="1060" y2="10" stroke="grey"></line><line x1="1064" y1="0" x2="1064" y2="10" stroke="grey"></line><line x1="1068" y1="0" x2="1068" y2="10" stroke="grey"></line><line x1="1072" y1="0" x2="1072" y2="10" stroke="grey"></line><line x1="1076" y1="0" x2="1076" y2="10" stroke="grey"></line><line x1="1080" y1="0" x2="1080" y2="10" stroke="grey"></line><line x1="1084" y1="0" x2="1084" y2="10" stroke="grey"></line><line x1="1088" y1="0" x2="1088" y2="10" stroke="grey"></line><line x1="1092" y1="0" x2="1092" y2="10" stroke="grey"></line><line x1="1096" y1="0" x2="1096" y2="10" stroke="grey"></line><line x1="1100" y1="0" x2="1100" y2="10" stroke="grey"></line><line x1="1104" y1="0" x2="1104" y2="10" stroke="grey"></line><line x1="1108" y1="0" x2="1108" y2="10" stroke="grey"></line><line x1="1112" y1="0" x2="1112" y2="10" stroke="grey"></line><line x1="1116" y1="0" x2="1116" y2="10" stroke="grey"></line><line x1="1120" y1="0" x2="1120" y2="10" stroke="grey"></line><line x1="1124" y1="0" x2="1124" y2="10" stroke="grey"></line><line x1="1128" y1="0" x2="1128" y2="10" stroke="grey"></line><line x1="1132" y1="0" x2="1132" y2="10" stroke="grey"></line><line x1="1136" y1="0" x2="1136" y2="10" stroke="grey"></line><line x1="1140" y1="0" x2="1140" y2="10" stroke="grey"></line><line x1="1144" y1="0" x2="1144" y2="10" stroke="grey"></line><line x1="1148" y1="0" x2="1148" y2="10" stroke="grey"></line><line x1="1152" y1="0" x2="1152" y2="10" stroke="grey"></line><line x1="1156" y1="0" x2="1156" y2="10" stroke="grey"></line><line x1="1160" y1="0" x2="1160" y2="10" stroke="grey"></line><line x1="1164" y1="0" x2="1164" y2="10" stroke="grey"></line><line x1="1168" y1="0" x2="1168" y2="10" stroke="grey"></line><line x1="1172" y1="0" x2="1172" y2="10" stroke="grey"></line><line x1="1176" y1="0" x2="1176" y2="10" stroke="grey"></line><line x1="1180" y1="0" x2="1180" y2="10" stroke="grey"></line><line x1="1184" y1="0" x2="1184" y2="10" stroke="grey"></line><line x1="1188" y1="0" x2="1188" y2="10" stroke="grey"></line><line x1="1192" y1="0" x2="1192" y2="10" stroke="grey"></line><line x1="1196" y1="0" x2="1196" y2="10" stroke="grey"></line><line x1="1200" y1="0" x2="1200" y2="10" stroke="grey"></line><line x1="0" y1="150" x2="0" y2="160" stroke="grey"></line><line x1="12.7" y1="150" x2="12.7" y2="160" stroke="grey"></line><line x1="25.4" y1="150" x2="25.4" y2="160" stroke="grey"></line><line x1="38.099999999999994" y1="150" x2="38.099999999999994" y2="160" stroke="grey"></line><line x1="50.8" y1="150" x2="50.8" y2="160" stroke="grey"></line><line x1="63.5" y1="150" x2="63.5" y2="160" stroke="grey"></line><line x1="76.19999999999999" y1="150" x2="76.19999999999999" y2="160" stroke="grey"></line><line x1="88.89999999999999" y1="150" x2="88.89999999999999" y2="160" stroke="grey"></line><line x1="101.6" y1="150" x2="101.6" y2="160" stroke="grey"></line><line x1="114.3" y1="150" x2="114.3" y2="160" stroke="grey"></line><line x1="127" y1="150" x2="127" y2="160" stroke="grey"></line><line x1="139.7" y1="150" x2="139.7" y2="160" stroke="grey"></line><line x1="152.39999999999998" y1="150" x2="152.39999999999998" y2="160" stroke="grey"></line><line x1="165.1" y1="150" x2="165.1" y2="160" stroke="grey"></line><line x1="177.79999999999998" y1="150" x2="177.79999999999998" y2="160" stroke="grey"></line><line x1="190.5" y1="150" x2="190.5" y2="160" stroke="grey"></line><line x1="203.2" y1="150" x2="203.2" y2="160" stroke="grey"></line><line x1="215.89999999999998" y1="150" x2="215.89999999999998" y2="160" stroke="grey"></line><line x1="228.6" y1="150" x2="228.6" y2="160" stroke="grey"></line><line x1="241.29999999999998" y1="150" x2="241.29999999999998" y2="160" stroke="grey"></line><line x1="254" y1="150" x2="254" y2="160" stroke="grey"></line><line x1="266.7" y1="150" x2="266.7" y2="160" stroke="grey"></line><line x1="279.4" y1="150" x2="279.4" y2="160" stroke="grey"></line><line x1="292.09999999999997" y1="150" x2="292.09999999999997" y2="160" stroke="grey"></line><line x1="304.79999999999995" y1="150" x2="304.79999999999995" y2="160" stroke="grey"></line><line x1="317.5" y1="150" x2="317.5" y2="160" stroke="grey"></line><line x1="330.2" y1="150" x2="330.2" y2="160" stroke="grey"></line><line x1="342.9" y1="150" x2="342.9" y2="160" stroke="grey"></line><line x1="355.59999999999997" y1="150" x2="355.59999999999997" y2="160" stroke="grey"></line><line x1="368.29999999999995" y1="150" x2="368.29999999999995" y2="160" stroke="grey"></line><line x1="381" y1="150" x2="381" y2="160" stroke="grey"></line><line x1="393.7" y1="150" x2="393.7" y2="160" stroke="grey"></line><line x1="406.4" y1="150" x2="406.4" y2="160" stroke="grey"></line><line x1="419.09999999999997" y1="150" x2="419.09999999999997" y2="160" stroke="grey"></line><line x1="431.79999999999995" y1="150" x2="431.79999999999995" y2="160" stroke="grey"></line><line x1="444.5" y1="150" x2="444.5" y2="160" stroke="grey"></line><line x1="457.2" y1="150" x2="457.2" y2="160" stroke="grey"></line><line x1="469.9" y1="150" x2="469.9" y2="160" stroke="grey"></line><line x1="482.59999999999997" y1="150" x2="482.59999999999997" y2="160" stroke="grey"></line><line x1="495.29999999999995" y1="150" x2="495.29999999999995" y2="160" stroke="grey"></line><line x1="508" y1="150" x2="508" y2="160" stroke="grey"></line><line x1="520.6999999999999" y1="150" x2="520.6999999999999" y2="160" stroke="grey"></line><line x1="533.4" y1="150" x2="533.4" y2="160" stroke="grey"></line><line x1="546.1" y1="150" x2="546.1" y2="160" stroke="grey"></line><line x1="558.8" y1="150" x2="558.8" y2="160" stroke="grey"></line><line x1="571.5" y1="150" x2="571.5" y2="160" stroke="grey"></line><line x1="584.1999999999999" y1="150" x2="584.1999999999999" y2="160" stroke="grey"></line><line x1="596.9" y1="150" x2="596.9" y2="160" stroke="grey"></line><line x1="609.5999999999999" y1="150" x2="609.5999999999999" y2="160" stroke="grey"></line><line x1="622.3" y1="150" x2="622.3" y2="160" stroke="grey"></line><line x1="635" y1="150" x2="635" y2="160" stroke="grey"></line><line x1="647.6999999999999" y1="150" x2="647.6999999999999" y2="160" stroke="grey"></line><line x1="660.4" y1="150" x2="660.4" y2="160" stroke="grey"></line><line x1="673.0999999999999" y1="150" x2="673.0999999999999" y2="160" stroke="grey"></line><line x1="685.8" y1="150" x2="685.8" y2="160" stroke="grey"></line><line x1="698.5" y1="150" x2="698.5" y2="160" stroke="grey"></line><line x1="711.1999999999999" y1="150" x2="711.1999999999999" y2="160" stroke="grey"></line><line x1="723.9" y1="150" x2="723.9" y2="160" stroke="grey"></line><line x1="736.5999999999999" y1="150" x2="736.5999999999999" y2="160" stroke="grey"></line><line x1="749.3" y1="150" x2="749.3" y2="160" stroke="grey"></line><line x1="762" y1="150" x2="762" y2="160" stroke="grey"></line><line x1="774.6999999999999" y1="150" x2="774.6999999999999" y2="160" stroke="grey"></line><line x1="787.4" y1="150" x2="787.4" y2="160" stroke="grey"></line><line x1="800.0999999999999" y1="150" x2="800.0999999999999" y2="160" stroke="grey"></line><line x1="812.8" y1="150" x2="812.8" y2="160" stroke="grey"></line><line x1="825.5" y1="150" x2="825.5" y2="160" stroke="grey"></line><line x1="838.1999999999999" y1="150" x2="838.1999999999999" y2="160" stroke="grey"></line><line x1="850.9" y1="150" x2="850.9" y2="160" stroke="grey"></line><line x1="863.5999999999999" y1="150" x2="863.5999999999999" y2="160" stroke="grey"></line><line x1="876.3" y1="150" x2="876.3" y2="160" stroke="grey"></line><line x1="889" y1="150" x2="889" y2="160" stroke="grey"></line><line x1="901.6999999999999" y1="150" x2="901.6999999999999" y2="160" stroke="grey"></line><line x1="914.4" y1="150" x2="914.4" y2="160" stroke="grey"></line><line x1="927.0999999999999" y1="150" x2="927.0999999999999" y2="160" stroke="grey"></line><line x1="939.8" y1="150" x2="939.8" y2="160" stroke="grey"></line><line x1="952.5" y1="150" x2="952.5" y2="160" stroke="grey"></line><line x1="965.1999999999999" y1="150" x2="965.1999999999999" y2="160" stroke="grey"></line><line x1="977.9" y1="150" x2="977.9" y2="160" stroke="grey"></line><line x1="990.5999999999999" y1="150" x2="990.5999999999999" y2="160" stroke="grey"></line><line x1="1003.3" y1="150" x2="1003.3" y2="160" stroke="grey"></line><line x1="1016" y1="150" x2="1016" y2="160" stroke="grey"></line><line x1="1028.7" y1="150" x2="1028.7" y2="160" stroke="grey"></line><line x1="1041.3999999999999" y1="150" x2="1041.3999999999999" y2="160" stroke="grey"></line><line x1="1054.1" y1="150" x2="1054.1" y2="160" stroke="grey"></line><line x1="1066.8" y1="150" x2="1066.8" y2="160" stroke="grey"></line><line x1="1079.5" y1="150" x2="1079.5" y2="160" stroke="grey"></line><line x1="1092.2" y1="150" x2="1092.2" y2="160" stroke="grey"></line><line x1="1104.8999999999999" y1="150" x2="1104.8999999999999" y2="160" stroke="grey"></line><line x1="1117.6" y1="150" x2="1117.6" y2="160" stroke="grey"></line><line x1="1130.3" y1="150" x2="1130.3" y2="160" stroke="grey"></line><line x1="1143" y1="150" x2="1143" y2="160" stroke="grey"></line><line x1="1155.7" y1="150" x2="1155.7" y2="160" stroke="grey"></line><line x1="1168.3999999999999" y1="150" x2="1168.3999999999999" y2="160" stroke="grey"></line><line x1="1181.1" y1="150" x2="1181.1" y2="160" stroke="grey"></line><line x1="1193.8" y1="150" x2="1193.8" y2="160" stroke="grey"></line><line x1="1206.5" y1="150" x2="1206.5" y2="160" stroke="grey"></line><line x1="1219.1999999999998" y1="150" x2="1219.1999999999998" y2="160" stroke="grey"></line><line x1="0" y1="0" x2="0" y2="20" stroke="black"></line><text x="-5" y="35" font-size="10">0</text><line x1="40" y1="0" x2="40" y2="20" stroke="black"></line><text x="35" y="35" font-size="10">1</text><line x1="80" y1="0" x2="80" y2="20" stroke="black"></line><text x="75" y="35" font-size="10">2</text><line x1="120" y1="0" x2="120" y2="20" stroke="black"></line><text x="115" y="35" font-size="10">3</text><line x1="160" y1="0" x2="160" y2="20" stroke="black"></line><text x="155" y="35" font-size="10">4</text><line x1="200" y1="0" x2="200" y2="20" stroke="black"></line><text x="195" y="35" font-size="10">5</text><line x1="240" y1="0" x2="240" y2="20" stroke="black"></line><text x="235" y="35" font-size="10">6</text><line x1="280" y1="0" x2="280" y2="20" stroke="black"></line><text x="275" y="35" font-size="10">7</text><line x1="320" y1="0" x2="320" y2="20" stroke="black"></line><text x="315" y="35" font-size="10">8</text><line x1="360" y1="0" x2="360" y2="20" stroke="black"></line><text x="355" y="35" font-size="10">9</text><line x1="400" y1="0" x2="400" y2="20" stroke="black"></line><text x="395" y="35" font-size="10">10</text><line x1="440" y1="0" x2="440" y2="20" stroke="black"></line><text x="435" y="35" font-size="10">11</text><line x1="480" y1="0" x2="480" y2="20" stroke="black"></line><text x="475" y="35" font-size="10">12</text><line x1="520" y1="0" x2="520" y2="20" stroke="black"></line><text x="515" y="35" font-size="10">13</text><line x1="560" y1="0" x2="560" y2="20" stroke="black"></line><text x="555" y="35" font-size="10">14</text><line x1="600" y1="0" x2="600" y2="20" stroke="black"></line><text x="595" y="35" font-size="10">15</text><line x1="640" y1="0" x2="640" y2="20" stroke="black"></line><text x="635" y="35" font-size="10">16</text><line x1="680" y1="0" x2="680" y2="20" stroke="black"></line><text x="675" y="35" font-size="10">17</text><line x1="720" y1="0" x2="720" y2="20" stroke="black"></line><text x="715" y="35" font-size="10">18</text><line x1="760" y1="0" x2="760" y2="20" stroke="black"></line><text x="755" y="35" font-size="10">19</text><line x1="800" y1="0" x2="800" y2="20" stroke="black"></line><text x="795" y="35" font-size="10">20</text><line x1="840" y1="0" x2="840" y2="20" stroke="black"></line><text x="835" y="35" font-size="10">21</text><line x1="880" y1="0" x2="880" y2="20" stroke="black"></line><text x="875" y="35" font-size="10">22</text><line x1="920" y1="0" x2="920" y2="20" stroke="black"></line><text x="915" y="35" font-size="10">23</text><line x1="960" y1="0" x2="960" y2="20" stroke="black"></line><text x="955" y="35" font-size="10">24</text><line x1="1000" y1="0" x2="1000" y2="20" stroke="black"></line><text x="995" y="35" font-size="10">25</text><line x1="1040" y1="0" x2="1040" y2="20" stroke="black"></line><text x="1035" y="35" font-size="10">26</text><line x1="1080" y1="0" x2="1080" y2="20" stroke="black"></line><text x="1075" y="35" font-size="10">27</text><line x1="1120" y1="0" x2="1120" y2="20" stroke="black"></line><text x="1115" y="35" font-size="10">28</text><line x1="1160" y1="0" x2="1160" y2="20" stroke="black"></line><text x="1155" y="35" font-size="10">29</text><line x1="1200" y1="0" x2="1200" y2="20" stroke="black"></line><text x="1195" y="35" font-size="10">30</text><line x1="0" y1="140" x2="0" y2="160" stroke="black"></line><text x="-5" y="130" font-size="10">0</text><line x1="101.6" y1="140" x2="101.6" y2="160" stroke="black"></line><text x="96.6" y="130" font-size="10">1</text><line x1="203.2" y1="140" x2="203.2" y2="160" stroke="black"></line><text x="198.2" y="130" font-size="10">2</text><line x1="304.79999999999995" y1="140" x2="304.79999999999995" y2="160" stroke="black"></line><text x="299.79999999999995" y="130" font-size="10">3</text><line x1="406.4" y1="140" x2="406.4" y2="160" stroke="black"></line><text x="401.4" y="130" font-size="10">4</text><line x1="508" y1="140" x2="508" y2="160" stroke="black"></line><text x="503" y="130" font-size="10">5</text><line x1="609.5999999999999" y1="140" x2="609.5999999999999" y2="160" stroke="black"></line><text x="604.5999999999999" y="130" font-size="10">6</text><line x1="711.1999999999999" y1="140" x2="711.1999999999999" y2="160" stroke="black"></line><text x="706.1999999999999" y="130" font-size="10">7</text><line x1="812.8" y1="140" x2="812.8" y2="160" stroke="black"></line><text x="807.8" y="130" font-size="10">8</text><line x1="914.4" y1="140" x2="914.4" y2="160" stroke="black"></line><text x="909.4" y="130" font-size="10">9</text><line x1="1016" y1="140" x2="1016" y2="160" stroke="black"></line><text x="1011" y="130" font-size="10">10</text><line x1="1117.6" y1="140" x2="1117.6" y2="160" stroke="black"></line><text x="1112.6" y="130" font-size="10">11</text><line x1="1219.1999999999998" y1="140" x2="1219.1999999999998" y2="160" stroke="black"></line><text x="1214.1999999999998" y="130" font-size="10">12</text><text x="0" y="35" font-size="10">cm</text><text x="0" y="130" font-size="10">inches</text><rect x="0" y="0" width="1300" height="160" fill="none" stroke="black" stroke-width="2"></rect></svg>